<svg version="1.2" xmlns="http://www.w3.org/2000/svg" viewBox="0 0 96 94" fill="#d16e51" width="96" height="94"><defs><clipPath clipPathUnits="userSpaceOnUse" id="cp1"><path d="m-1483-4167h1920v8484h-1920z"/></clipPath></defs><style>.a{fill:#d16e51}</style><g clip-path="url(#cp1)"><path fill-rule="evenodd" class="a" d="m48 93.9c-41.7 0-62.7-50.7-33.2-80.2 17.5-18.3 48.9-18.3 66.4 0 29.5 29.5 8.5 80.2-33.2 80.2zm0-86.6c-21.9 0-39.7 17.8-39.7 39.6 2.2 52.7 77.2 52.6 79.4 0 0-21.8-17.8-39.6-39.7-39.6zm17.1 56.7c-1.4 1.5-3.8 1.5-5.2 0l-11.6-11.6c-5.2 0.3-7.8-6.1-4-9.6q0 0 0-0.1v-21.5c0.2-4.9 7.2-4.9 7.4 0v21.5q0 0.1 0 0.1c1.2 1.1 1.9 2.7 1.8 4.4l11.6 11.6c1.4 1.5 1.4 3.8 0 5.2z"/></g></svg>