<svg version="1.2" xmlns="http://www.w3.org/2000/svg" viewBox="0 0 27 36" width="27" height="36"><defs><clipPath clipPathUnits="userSpaceOnUse" id="cp1"><path d="m-683-9090h1920v10190h-1920z"/></clipPath></defs><style>.a{fill:#fff}</style><g clip-path="url(#cp1)"><path class="a" d="m17.1 32.5c0 1.7-1.4 3.2-3.2 3.2-1.8 0-3.2-1.5-3.2-3.2 0-1.8 1.4-3.3 3.2-3.3 1.8 0 3.2 1.5 3.2 3.3zm-9.7-29.2c0 1.8-1.4 3.2-3.2 3.2-1.8 0-3.3-1.4-3.3-3.2 0-1.8 1.5-3.3 3.3-3.3 1.8 0 3.2 1.5 3.2 3.3zm0 9.7c0 1.8-1.4 3.3-3.2 3.3-1.8 0-3.3-1.5-3.3-3.3 0-1.8 1.5-3.2 3.3-3.2 1.8 0 3.2 1.4 3.2 3.2zm0 9.7c0 1.8-1.4 3.3-3.2 3.3-1.8 0-3.3-1.5-3.3-3.3 0-1.7 1.5-3.2 3.3-3.2 1.8 0 3.2 1.5 3.2 3.2zm13-19.4c0-1.8 1.4-3.3 3.2-3.3 1.8 0 3.3 1.5 3.3 3.3 0 1.8-1.5 3.2-3.3 3.2-1.8 0-3.2-1.4-3.2-3.2zm-3.3 19.4c0 1.8-1.4 3.3-3.2 3.3-1.8 0-3.2-1.5-3.2-3.3 0-1.7 1.4-3.2 3.2-3.2 1.8 0 3.2 1.5 3.2 3.2zm9.8 0c0 1.8-1.5 3.3-3.3 3.3-1.8 0-3.2-1.5-3.2-3.3 0-1.7 1.4-3.2 3.2-3.2 1.8 0 3.3 1.5 3.3 3.2zm0-9.7c0 1.8-1.5 3.3-3.3 3.3-1.8 0-3.2-1.5-3.2-3.3 0-1.8 1.4-3.2 3.2-3.2 1.8 0 3.3 1.4 3.3 3.2zm-9.8 0c0 1.8-1.4 3.3-3.2 3.3-1.8 0-3.2-1.5-3.2-3.3 0-1.8 1.4-3.2 3.2-3.2 1.8 0 3.2 1.4 3.2 3.2zm0-9.7c0 1.8-1.4 3.2-3.2 3.2-1.8 0-3.2-1.4-3.2-3.2 0-1.8 1.4-3.3 3.2-3.3 1.8 0 3.2 1.5 3.2 3.3z"/></g></svg>