<svg version="1.2" xmlns="http://www.w3.org/2000/svg" viewBox="0 0 36 32" width="36" height="32"><defs><clipPath clipPathUnits="userSpaceOnUse" id="cp1"><path d="m-945-7674h1920v10190h-1920z"/></clipPath></defs><style>.a{fill:#d16e51}</style><g clip-path="url(#cp1)"><path class="a" d="m36 19.5v9c0 1.8-1.5 3.3-3.4 3.3h-9c-1.8 0-3.4-1.5-3.4-3.3v-16.9c0-6.2 5.1-11.3 11.3-11.3h0.6c0.9 0 1.6 0.8 1.6 1.7v3.4c0 0.9-0.7 1.7-1.6 1.7h-0.6c-2.5 0-4.5 2-4.5 4.5v4.5h5.6c1.9 0 3.4 1.5 3.4 3.4zm-20.3 0v9c0 1.8-1.5 3.3-3.3 3.3h-9c-1.9 0-3.4-1.5-3.4-3.3v-16.9c0-6.2 5-11.3 11.2-11.3h0.6c0.9 0 1.7 0.8 1.7 1.7v3.4c0 0.9-0.8 1.7-1.7 1.7h-0.6c-2.4 0-4.5 2-4.5 4.5v4.5h5.7c1.8 0 3.3 1.5 3.3 3.4z"/></g></svg>