<svg version="1.2" xmlns="http://www.w3.org/2000/svg" viewBox="0 0 35 35" width="35" height="35" fill="#fff"><defs><clipPath clipPathUnits="userSpaceOnUse" id="cp1"><path d="m-55-9091h1920v10190h-1920z"/></clipPath></defs><style>.a{fill:#fff}</style><g clip-path="url(#cp1)"><path fill-rule="evenodd" class="a" d="m34.1 25.6c0 4.7-3.8 8.6-8.5 8.6-1.9 0-3.7-0.7-5.2-1.8q-1.6 0.3-3.3 0.3c-8.6 0-15.6-6.9-15.6-15.6 0-1.1 0.2-2.2 0.4-3.3-1.1-1.4-1.8-3.2-1.8-5.2 0-4.7 3.8-8.5 8.5-8.5 2 0 3.8 0.7 5.2 1.8q1.6-0.3 3.3-0.3c8.6 0 15.6 6.9 15.6 15.5 0 1.2-0.1 2.3-0.3 3.4 1.1 1.4 1.7 3.2 1.7 5.1zm-8-4.7c0-3.9-3.8-5.2-6.9-5.9-3.7-0.9-5.2-1-5.2-2.5 0-1.2 1.2-1.8 3.1-1.8 3.5 0 3.6 2.6 5.7 2.6 1.5 0 2.3-1.1 2.3-2.4 0-2.6-4.2-4.2-8.4-4.2-3.8 0-8.3 1.6-8.3 6.1 0 5 4.2 5.5 9 6.6 2 0.5 3.2 0.8 3.2 2.2 0 1.1-1.3 2-3.2 2-4.1 0-4.4-3.4-6.7-3.4-1.6 0-2.3 1.1-2.3 2.3 0 2.7 4.2 4.9 9.2 4.9 4.2 0 8.5-2.1 8.5-6.5z"/></g></svg>