<svg version="1.2" xmlns="http://www.w3.org/2000/svg" viewBox="0 0 95 94" fill="#d16e51" width="95" height="94"><defs><clipPath clipPathUnits="userSpaceOnUse" id="cp1"><path d="m-347-4167h1920v8484h-1920z"/></clipPath></defs><style>.a{fill:#d16e51}</style><g clip-path="url(#cp1)"><path fill-rule="evenodd" class="a" d="m0.5 47c0-26 21.1-47 47-47 25.9 0 47 21 47 47 0 25.9-21.1 47-47 47-25.9 0-47-21.1-47-47zm43.6 0c0 1 0.5 2 1.3 2.6l16.8 13.4c0.6 0.5 1.3 0.8 2.1 0.8 1 0 1.9-0.5 2.6-1.3 1.2-1.4 0.9-3.6-0.5-4.7l-15.5-12.4v-25.3c0-1.8-1.6-3.3-3.4-3.3-1.8 0-3.4 1.5-3.4 3.3 0 0 0 26.9 0 26.9z"/></g></svg>