<svg version="1.2" xmlns="http://www.w3.org/2000/svg" viewBox="0 0 95 94" width="95" height="94"><defs><clipPath clipPathUnits="userSpaceOnUse" id="cp1"><path d="m-915-4167h1920v8484h-1920z"/></clipPath></defs><style>.a{fill:#d16e51}</style><g clip-path="url(#cp1)"><path class="a" d="m61.7 88.6c0.5 2.1-0.8 4.1-2.8 4.6q-1.4 0.4-2.8 0.6c-1.1 0.2-2.1 0-2.9-0.6-0.8-0.5-1.4-1.4-1.6-2.4-0.3-2.1 1-4 3.1-4.4q1.2-0.3 2.4-0.5c2-0.6 4.1 0.7 4.6 2.7z"/><path class="a" d="m84.4 32.6c-0.8-2 0.1-4.2 2.1-5 1.9-0.7 4.1 0.2 4.9 2.2q0.6 1.3 1 2.7c0.7 2-0.4 4.1-2.4 4.8-1.2 0.4-2.4 0.1-3.4-0.5-0.6-0.5-1.1-1.1-1.4-1.9q-0.4-1.2-0.8-2.3z"/><path class="a" d="m74.7 81.5c1.2 1.8 0.7 4.1-1.1 5.3q-1.2 0.8-2.4 1.5c-1.4 0.8-3 0.6-4.1-0.2q-0.7-0.5-1.1-1.2c-1.1-1.8-0.5-4.2 1.4-5.2q1-0.6 2-1.3c1.8-1.1 4.1-0.7 5.3 1.1z"/><path class="a" d="m94.8 48.4c0 2.1-1.8 3.7-3.9 3.7-0.8 0-1.5-0.3-2.1-0.7-1-0.7-1.6-1.9-1.6-3.2q0-1.2 0-2.4c-0.1-2.1 1.5-3.9 3.6-4 2.1 0 3.9 1.6 4 3.7q0 1.4 0 2.9z"/><path class="a" d="m85.3 75.7q-0.8 1.2-1.8 2.3c-1.3 1.5-3.5 1.8-5.1 0.6q-0.1-0.1-0.2-0.2c-1.6-1.3-1.8-3.7-0.5-5.3q0.8-1 1.5-1.9c1.3-1.7 3.7-2 5.4-0.8 1.7 1.3 2 3.7 0.7 5.3z"/><path class="a" d="m92.7 61.4q-0.5 1.4-1 2.8c-0.7 1.9-2.9 2.9-4.9 2.2q-0.5-0.2-0.8-0.5c-1.4-1-2-2.8-1.4-4.5q0.4-1.1 0.8-2.2c0.6-2.1 2.8-3.2 4.8-2.5 2 0.6 3.1 2.7 2.5 4.7z"/><path class="a" d="m43.5 90.8c-0.3 2.1-2.3 3.5-4.4 3.1-6.8-1.2-13.1-3.9-18.8-7.9q-3.3-2.3-6.1-5.1 0 0 0 0 0 0-0.1 0c-6.9-6.9-11.5-15.7-13.2-25.5q-0.3-1.4-0.4-2.9 0-0.1 0-0.2-0.2-1.4-0.3-2.8 0-0.1 0-0.1c-0.4-9.8 2.2-19.4 7.5-27.7q0.1-0.1 0.1-0.2 0.5-0.7 1-1.5 0.4-0.4 0.7-0.8 0.1-0.2 0.1-0.2c6.5-8.7 15.6-14.8 26.1-17.5q0 0 0.1 0 0 0 0 0 1.8-0.5 3.6-0.8c12.1-2.1 24.3 0.5 34.4 7.3l3-4.3c0.9-1.2 1.8-1 2.2 0.4l3.5 12.5c0.4 1.4-0.5 2.6-1.9 2.8l-12.9 1.1c-1.5 0.2-2-0.7-1.2-1.9l3-4.3c-13.8-9.2-31.5-8.6-44.6 0.4q0 0-0.1 0c-3.7 2.6-7 5.9-9.8 9.8-12.6 17.9-8.3 42.7 9.6 55.3q1.9 1.3 3.8 2.3 0 0 0 0 1.1 0.6 2.2 1.1 0.1 0.1 0.1 0.1 4.7 2.2 9.8 3.1c2 0.4 3.4 2.3 3 4.4z"/><path class="a" d="m48.2 19.7v26.9l24.8 12.8c1.5 0.7 2.1 2.6 1.3 4.1-0.6 1.1-1.6 1.7-2.8 1.7q-0.7 0-1.4-0.4l-28-14.5v-30.6c0-1.7 1.4-3.1 3.1-3.1 1.7 0 3 1.4 3 3.1z"/></g></svg>