<svg version="1.2" xmlns="http://www.w3.org/2000/svg" viewBox="0 0 362 39" width="362" height="39"><defs><clipPath clipPathUnits="userSpaceOnUse" id="cp1"><path d="m-145-85h1920v10190h-1920z"/></clipPath></defs><style>.a{fill:#fff}.b{fill:#d16e51}</style><g clip-path="url(#cp1)"><path fill-rule="evenodd" class="a" d="m255.4 29c-1.1 6-6.1 7.4-9.7 7.8-2.1 0.3-4.3 0.4-7.1 0.4q-1.9 0-3.7 0c-1.2 0-2.4 0-3.6 0q-1.3 0-2.3 0-0.2 0-0.3 0c-0.6 0-1.4-0.1-1.9-0.7q-0.6-0.5-0.5-1.4c0.1-0.8 0.5-1.7 2.1-1.7q0.2 0 0.4 0 0.2 0 0.3 0h0.1c1.3 0 2.6 0 3.6 0q0.8 0 1.7 0 0.8 0 1.7 0c2.5 0 5.2-0.1 7.8-0.2 3.1-0.1 6.9-1.1 7.4-5.5 0.2-1.6-0.2-3.1-1.1-4.2-1.1-1.3-2.9-2.1-4.9-2.2-3.4-0.3-6.9-0.3-10.2-0.3-1.8 0-3.7 0-5.5 0h-0.1q-0.2 0-0.4 0-0.3 0-0.6 0c-0.6 0-1.3-0.1-1.8-0.6q-0.6-0.7-0.5-1.7c0.1-0.7 0.4-1.7 1.9-1.7q0.5 0 0.9 0 0.3 0.1 0.5 0.1c1 0 2 0 3.3 0q1.2 0 2.4 0 1.2 0 2.5 0c1.5 0 2.8 0 4-0.1 4.9-0.1 7.8-2.3 7.8-5.9 0-3.6-3-5.9-7.8-6-1.3 0-2.7-0.1-4.5-0.1q-1.3 0.1-2.5 0.1-1.3 0-2.6 0c-1.1 0-2.1 0-3-0.1q-0.2 0-0.4 0.1-0.3 0-0.6 0c-1.4 0-1.8-1-1.9-1.5q-0.1-1.1 0.4-1.7c0.5-0.7 1.4-0.7 2.2-0.7q0.1 0 0.2 0h0.1c1.2 0 2.4 0 3.7 0 3.5 0 7.1 0 10.7 0.3 5.2 0.3 8.4 2.5 9.7 6.7 1.5 4.8-0.8 7.9-3.7 10.3 4.7 2.3 6.6 5.8 5.8 10.5zm-76.3 5c0.1 0.8 0.2 1.7-0.4 2.4q-0.6 0.6-1.6 0.6-1.1 0-1.6-0.6c-0.7-0.7-0.6-1.6-0.6-2.4q0.1-0.3 0.1-0.5c0-2.1 0-3.8 0-5.4 0-1.4 0-2.9 0-4.5q0-0.4 0-0.7c0-0.8 0-1.7-0.1-1.9q-0.2-0.1-1-0.1-0.2 0-0.6 0-0.3 0-0.8 0c-3.2 0-6 0-8.6 0-2.6 0-5.1 0-8 0-0.7 0-1.9 0-2.1 0.3-0.2 0.1-0.2 1-0.2 1.8v0.3c0 1.3 0 2.6 0 3.8 0.1 2.3 0.1 4.7 0 7q0 0.2 0.1 0.4c0 0.6 0 1.4-0.5 2q-0.5 0.5-1.6 0.6h-0.1c-0.8 0-1.4-0.4-1.7-1.1-0.3-0.6-0.3-1.2-0.3-1.7q0-15.1 0-30.2c0-0.5 0-1.2 0.3-1.7 0.2-0.5 0.7-1.1 1.8-1.1q0.2 0 0.4 0c1.8 0.2 1.7 1.8 1.7 2.5q-0.1 0.2-0.1 0.4c0.1 2.3 0.1 4.6 0 6.9q0 1.9 0 3.9v0.1c0 0.8 0 1.7 0.2 1.8 0.1 0.2 1.2 0.2 1.8 0.2 2.9 0 5.5 0 8.2 0 2.9 0 5.8 0 9.4 0 0.6 0 1.5 0 1.7-0.1 0.1-0.2 0.1-1.2 0.1-1.7q0-2.4 0-4.8 0-3.2 0-6.5c0-2.4 1.5-2.7 2.1-2.7q0.9 0 1.4 0.5c0.6 0.6 0.6 1.4 0.6 2.1l-0.1 0.2c0.1 3.5 0.1 7.1 0.1 10.6q0 2.4 0 4.7 0 1.7 0 3.5c0 3.4 0 7-0.1 10.4q0 0.3 0.1 0.7zm182.5-5.7c-0.4 4.8-4.1 8.1-10.3 9-0.6 0.1-1.3 0.1-1.9 0.1q-0.5 0.1-1 0.1c-4.3-0.1-8.1-1.3-11.3-3.6-0.6-0.4-2.1-1.5-1.2-3.2q0.6-0.9 1.5-1c0.6 0 1.1 0.5 1.5 0.8q0.1 0.1 0.3 0.2c2.5 1.9 5.5 2.8 9.1 2.8q1.5 0 3.2-0.2c3.6-0.4 5.4-2 5.9-5 0.4-2.8-1-4.6-4.3-5.7-1.7-0.6-3.5-1.1-5.2-1.6-1.7-0.5-3.4-1-5.1-1.5-4.6-1.6-6.8-4.6-6.4-9.2 0.3-4.3 2.7-7.1 7.3-8.6q2.6-0.8 5.2-0.8c2.7 0 5.5 0.6 8.4 1.9q0.2 0.1 0.4 0.2c0.7 0.3 1.7 0.6 2 1.5q0.3 0.8-0.2 1.8c-0.4 0.9-1 1-1.5 1-0.6 0-1.2-0.3-1.6-0.7-0.2-0.1-0.3-0.2-0.4-0.2-2-1-4.2-1.5-6.7-1.5q-1.4 0-3 0.2c-3.6 0.5-5.4 2.1-5.8 5.1-0.3 2.9 1 4.7 4.3 5.8 1.5 0.5 3.1 0.9 4.6 1.3 1.2 0.3 2.4 0.6 3.6 1 6.3 1.9 8.9 4.9 8.6 10zm-220.9-22.5c1.8 2.1 2.7 5 2.6 8.6-0.2 6.3-5 10.9-11.9 11.4-0.3 0-0.6 0-1 0q-0.2 0-0.5 0-0.4 0-0.8 0c-0.9 0-2 0-3.1-0.1-0.9 0-1.8-0.1-2.6-0.1-2 0-2.7 0.3-3 0.5v0.1c-0.9 0.6-0.7 2.7-0.6 4.7 0 1.1 0.1 2.2 0.1 3.2q-0.1 0.2-0.1 0.5c0 0.8 0 2.5-2 2.5h-0.1c-2 0-2-1.7-2-2.5q-0.1-0.2-0.1-0.4 0-0.2 0-0.4 0-0.1 0-0.1c-0.3-5.7-0.5-8.6 1-10.2 1.6-1.6 4.4-1.6 10.1-1.6h0.3q0.3 0 0.7 0 0.4 0 0.8 0c1.3 0 2.9-0.1 4.3-0.4 3.9-0.9 6.1-3.2 6.3-7 0.3-4.6-1.4-7.2-5.4-8.6-2.2-0.8-4.5-0.9-7-0.9q-1.3 0-2.6 0-1.7 0-3.5 0-0.9 0-1.6 0-0.5 0.1-0.9 0.1c-0.7 0-1.2-0.1-1.6-0.4-0.5-0.4-0.6-1.1-0.6-1.6 0-2 1.7-2 2.8-2q0.3 0 0.8 0 0.6 0 1.3 0h3.6c0.1 0 0.3 0 0.4 0q0.1 0 0.1 0 0.6 0 1.1 0c2.2 0 4.1 0.2 6.6 0.6 3.6 0.5 6.3 1.9 8.1 4.1zm-62.1 27.6c0.4 0.6 0.9 1.5 0.6 2.3q-0.2 0.7-1 1.2-0.6 0.2-1.1 0.2c-1.4 0-2.1-1.4-2.5-2.4q-0.1-0.2-0.2-0.4c-2.3-5.2-4.7-10.4-7-15.5q-2-4.5-4.1-9c-0.4-0.8-0.8-1.7-1.3-2.7q-0.1-0.1-0.1-0.3l-2.2 4.9c-3.2 7.1-6.4 14-9.5 20.9q-0.5 1.2-1.1 2.3l-0.3 0.6c-0.5 1.1-1.3 1.7-2.2 1.7q-0.4 0-0.9-0.2-0.8-0.3-1.1-1c-0.2-0.7 0.1-1.4 0.4-1.8q0.1-0.2 0.2-0.4c4.4-9.5 9-19.7 13.8-30.1l0.1-0.2c0.4-0.9 1-2.2 2.7-2.3 1.9 0 2.5 1.4 3 2.4q0.1 0.2 0.1 0.3 2.4 5.1 4.7 10.2c2.9 6.1 5.8 12.5 8.6 18.7q0.1 0.2 0.4 0.6zm140.8 0.3c0.3 0.6 0.8 1.4 0.5 2.2q-0.2 0.7-1.1 1-0.5 0.3-1 0.3c-1.4 0-2-1.4-2.4-2.4l-0.1-0.1c-3.2-7.1-6.6-14.7-10.9-24.1-0.4-0.9-0.9-1.9-1.5-3q-0.1-0.4-0.3-0.8l-2.3 5.1c-3.3 7.2-6.4 14-9.5 20.9q-0.3 0.5-0.5 1c-0.2 0.6-0.5 1.2-0.9 1.9-0.4 0.9-1.2 1.4-2 1.4q-0.4 0-0.7-0.1-0.9-0.3-1.2-1c-0.3-0.7 0.1-1.5 0.3-2.1l0.1-0.1c0.4-1.2 1-2.3 1.5-3.3q0.5-1 0.9-2 1.9-4.1 3.7-8.1c2.5-5.4 5-10.9 7.6-16.4q0-0.2 0.1-0.4c0.4-0.9 1-2.3 2.9-2.4 1.9 0 2.5 1.4 2.9 2.4q0.1 0.2 0.2 0.3c5.1 11.2 9.4 20.5 13.4 29.4q0.1 0.1 0.3 0.4zm108.8-31.8c0.3 0.2 0.6 0.7 0.5 1.5-0.1 1.6-1.4 1.6-2 1.6q-0.2 0-0.4 0.1c-0.1 0-0.4 0-1.2 0-0.4 0-0.9 0-1.2 0q-0.3 0-0.5 0-1.4 0-2.5 0-0.8-0.1-1.5-0.1c-1 0-2.1 0.1-2.5 0.3-0.1 0.1-0.2 0.5-0.2 1.4 0 1.5 0 3.7-0.1 7.1q0 3.1 0 6.3 0 3.6 0 7.2 0 3.3 0 6.7 0 0.2 0 0.4c0 0.7 0.1 1.5-0.5 2.1q-0.6 0.6-1.7 0.6-1 0-1.5-0.6c-0.6-0.6-0.5-1.4-0.5-2.1q0-0.2 0-0.4c0-5.1 0-10.2 0-15.2 0.1-3.6 0.1-7.3 0.1-10.9 0-1.1 0-2.3-0.3-2.6-0.3-0.3-1.3-0.3-2.7-0.3q-1.1 0-2.2 0.1-1.1 0-2.2 0-1.1 0-1.9-0.1-0.3 0-0.6 0.1-0.3 0-0.6 0c-0.3 0-0.9 0-1.4-0.5q-0.5-0.5-0.5-1.5c0-0.9 0.5-1.9 2.7-1.9q11.7-0.1 23.4 0 1.3 0 2 0.7zm-218.5 33.3c0 2-1.3 2-2.7 2q-3.5 0-7 0-2.1 0-4.2 0c-2.6 0-4.8 0-6.8 0q-1.5 0-2.3-0.8c-0.7-0.7-0.8-1.8-0.8-2.8 0-3.5 0-7 0-10.4q0-2 0-4v-3.7c0-3.5 0-7.1 0-10.7q0-0.2 0-0.4c0-0.8 0-1.8 0.6-2.5q0.6-0.6 1.6-0.6 1.1 0 1.6 0.6c0.6 0.7 0.5 1.6 0.4 2.4q0 0.3 0 0.6c0 5.2 0 10.4 0 15.5-0.1 3.2-0.1 6.4-0.1 9.6 0 1.3 0 2.6 0.3 2.9 0.3 0.3 1.3 0.3 2.5 0.3h0.4q2.4 0 4.7 0 2.1 0 4.3 0c1.7 0 3.1 0 4.4 0q0.3 0 0.5 0 0.3 0 0.5 0c0.5 0 2.1 0 2.1 2zm-74.8-32.1c0 1.7-1.4 3.1-3.1 3.1-1.1 0-2-0.5-2.5-1.2h-13.3c-0.3 0-0.6-0.3-0.6-0.7v-2.4c0-0.4 0.3-0.7 0.6-0.7h13.3c0.5-0.7 1.4-1.2 2.5-1.2 1.7 0 3.1 1.4 3.1 3.1zm-0.4 15.9c0 1.7-1.4 3.1-3.1 3.1-1.1 0-2-0.5-2.5-1.3h-21.4v-0.6-3.1h0.6 20.8c0.6-0.8 1.4-1.3 2.5-1.3 1.7 0 3.1 1.4 3.1 3.2zm-0.2 16.2c0 1.7-1.4 3.1-3.1 3.1-1 0-1.9-0.5-2.5-1.2h-28.7v-0.7-3.1h0.7 28c0.6-0.7 1.5-1.2 2.5-1.2 1.7 0 3.1 1.4 3.1 3.1zm117.2 1.1z"/><path class="b" d="m263 23.2h4v2.6h-4z"/><path class="b" d="m263 28.5h4v2.7h-4z"/><path class="b" d="m263 12.5h4v2.7h-4z"/><path class="b" d="m263 17.9h4v2.6h-4z"/><path class="b" d="m289.7 12.5h4v2.7h-4z"/><path class="b" d="m289.7 23.2h4v2.6h-4z"/><path class="b" d="m289.7 7.2h4v2.7h-4z"/><path class="b" d="m289.7 17.9h4v2.6h-4z"/><circle class="b" cx="275.8" cy="9.4" r="2"/><path class="b" d="m263 7.2h4v2.7h-4z"/><path class="b" d="m289.7 28.5h4v2.7h-4z"/><path fill-rule="evenodd" class="b" d="m288.4 1.9v34.6h-20.1v-34.6zm-3.4 3.4h-13.2v27.8h13.2z"/></g></svg>