<svg version="1.2" xmlns="http://www.w3.org/2000/svg" viewBox="0 0 402 44" width="402" height="44"><defs><clipPath clipPathUnits="userSpaceOnUse" id="cp1"><path d="m-137-9320h1920v10190h-1920z"/></clipPath></defs><style>.a{fill:#d16e51}</style><g clip-path="url(#cp1)"><path fill-rule="evenodd" d="m284 33c-1.2 6.7-6.8 8.2-10.8 8.7-2.3 0.4-4.7 0.5-7.8 0.5-1.4 0-2.8 0-4.1-0.1-1.3 0-2.7 0-4 0q-1.4 0-2.6 0-0.1 0-0.3 0c-0.6 0-1.5 0-2.1-0.7q-0.6-0.6-0.5-1.6c0.1-0.9 0.5-1.9 2.2-1.9q0.3 0 0.5 0 0.2 0 0.4 0c1.5 0 2.9 0 4 0q1 0 1.9 0 1 0 1.9 0c2.8 0 5.8 0 8.7-0.1 3.4-0.2 7.6-1.4 8.2-6.2 0.2-1.8-0.2-3.4-1.3-4.6-1.2-1.5-3.1-2.4-5.4-2.5-3.8-0.3-7.6-0.3-11.3-0.3-2 0-4.1 0-6.1 0h-0.1q-0.2 0-0.5 0-0.3 0-0.5 0c-0.7 0-1.5-0.1-2.1-0.7q-0.6-0.7-0.5-1.9c0.1-0.7 0.4-1.9 2.1-1.9 0.3 0 0.6 0.1 0.9 0.1q0.4 0 0.6 0.1h0.1c1-0.1 2.2-0.1 3.5-0.1q1.4 0 2.8 0 1.3 0 2.7 0c1.7 0 3.1 0 4.4 0 5.4-0.2 8.7-2.6 8.7-6.6 0-4-3.3-6.5-8.6-6.6-1.5-0.1-3-0.1-5-0.1q-1.4 0-2.9 0-1.4 0-2.8 0c-1.3 0-2.3 0-3.3 0q-0.2 0-0.5 0-0.3 0.1-0.6 0.1c-1.6 0-2-1.1-2.1-1.7q-0.2-1.2 0.4-1.9c0.6-0.7 1.5-0.8 2.4-0.8q0.2 0 0.3 0h0.1c1.3 0 2.7 0 4 0 3.9 0 8 0.1 11.9 0.3 5.8 0.5 9.3 2.9 10.8 7.5 1.7 5.3-1 8.7-4.1 11.4 5.2 2.6 7.3 6.4 6.4 11.6zm-84.6 5.6c0.1 0.8 0.2 1.9-0.4 2.6q-0.6 0.7-1.7 0.7-1.2 0-1.9-0.7c-0.7-0.7-0.6-1.7-0.5-2.6q0-0.3 0-0.6c0-2.3 0-4.1 0-5.9 0-1.6 0-3.2 0-5q0-0.5 0-0.8c0-0.9 0-1.9-0.1-2.1q-0.2-0.1-1.1-0.1-0.3 0-0.6 0-0.4 0-0.9 0c-3.6 0-6.7 0-9.6 0-2.8 0-5.6 0-8.9 0-0.7 0-2.1 0-2.3 0.3-0.2 0.1-0.2 1.1-0.2 2v0.3c0 1.4 0 2.9 0.1 4.3 0 2.5 0 5.1-0.1 7.7q0 0.2 0.1 0.5c0 0.6 0.1 1.5-0.5 2.1q-0.6 0.7-1.9 0.7c-0.9 0-1.6-0.5-2-1.2-0.2-0.6-0.2-1.3-0.2-1.9q0-16.7 0-33.4c0-0.6 0-1.3 0.3-2 0.3-0.5 0.8-1.1 2-1.1q0.2 0 0.4 0c2 0.2 1.9 2 1.9 2.8q0 0.2 0 0.4c0 2.5 0 5.1 0 7.6q-0.1 2.2-0.1 4.3v0.2c0 0.8 0 1.8 0.2 2 0.1 0.2 1.4 0.2 2 0.2 3.3 0 6.2 0 9.1 0 3.2 0 6.4 0 10.4 0 0.7 0 1.7 0 1.9-0.2 0.1-0.2 0.1-1.2 0.1-1.9q0-2.6 0-5.2 0-3.6 0-7.2c0-2.7 1.6-3 2.3-3q1 0 1.6 0.6c0.6 0.6 0.6 1.5 0.6 2.3v0.1c0 4 0 8 0 11.8q0 2.6 0 5.2 0 1.9 0 3.9c0 3.8 0 7.7 0 11.6q0 0.3 0 0.7zm202.2-6.4c-0.3 5.4-4.5 9.1-11.3 10.1-0.7 0.1-1.4 0.1-2.2 0.1q-0.5 0-1 0h-0.1c-4.7-0.1-8.9-1.4-12.4-3.9-0.7-0.5-2.4-1.7-1.4-3.5q0.6-1.1 1.6-1.1c0.7 0 1.3 0.4 1.7 0.8q0.2 0.1 0.3 0.3c2.8 2 6.1 3 10.2 3 1.1 0 2.2-0.1 3.5-0.2 4-0.5 6-2.2 6.5-5.5 0.4-3.1-1-5.1-4.8-6.4-1.8-0.6-3.8-1.2-5.7-1.7-1.9-0.5-3.8-1.1-5.6-1.7-5.1-1.7-7.5-5.1-7.1-10.1 0.3-4.8 3-7.9 8-9.6q2.9-0.9 5.9-0.9c3 0 6 0.7 9.2 2.1q0.2 0.1 0.5 0.2c0.8 0.4 1.8 0.8 2.2 1.7q0.3 0.9-0.2 2c-0.5 1-1.2 1.2-1.7 1.2-0.7 0-1.3-0.5-1.8-0.8-0.2-0.2-0.3-0.3-0.5-0.3-2.2-1.1-4.6-1.7-7.3-1.7q-1.6 0.1-3.4 0.3c-4 0.5-6 2.3-6.4 5.7-0.3 3.2 1.1 5.1 4.8 6.4 1.6 0.5 3.4 1 5.1 1.4 1.3 0.3 2.6 0.7 4 1.1 7 2.1 9.8 5.4 9.4 11zm-244.7-24.9c2.1 2.4 3 5.6 2.9 9.6-0.3 7-5.6 12-13.2 12.6-0.3 0-0.7 0-1.1 0q-0.3 0-0.5 0-0.5 0-0.9 0c-1.1 0-2.3 0-3.5-0.1-0.9 0-2-0.1-2.9-0.1-2.2 0-3 0.3-3.3 0.6-1 0.8-0.8 3-0.7 5.3 0.1 1.1 0.2 2.3 0.1 3.5q0 0.2 0 0.5c0 0.9 0 2.8-2.3 2.9h-0.1c-2.2 0-2.2-1.9-2.2-2.8q-0.1-0.3-0.1-0.5 0-0.2 0-0.4 0-0.1 0-0.2c-0.3-6.3-0.5-9.5 1.1-11.2 1.7-1.8 4.9-1.8 11.2-1.9h0.3q0.4 0 0.8 0 0.5 0.1 0.9 0.1c1.5 0 3.2-0.1 4.8-0.4 4.3-1 6.7-3.6 6.9-7.8 0.4-5.1-1.5-8-6-9.6-2.4-0.8-4.9-0.9-7.7-0.9q-1.4 0-2.8 0-2 0-4 0-1 0-1.7 0-0.6 0-1 0c-0.8 0-1.3 0-1.8-0.4-0.6-0.5-0.7-1.2-0.7-1.8 0-2.1 1.9-2.1 3.1-2.1q0.4 0 0.9 0 0.7 0 1.5 0h4c0.1 0 0.3 0 0.4 0q0.1 0 0.1 0h0.1q0.6 0 1.1 0c2.5 0 4.6 0.1 7.3 0.6 4 0.6 7 2.1 9 4.5zm-68.9 30.6c0.5 0.7 1.1 1.6 0.8 2.6q-0.2 0.8-1.2 1.3-0.6 0.3-1.2 0.3c-1.6 0-2.2-1.6-2.7-2.7q-0.1-0.3-0.2-0.5c-2.6-5.7-5.3-11.5-7.8-17.2q-2.3-4.9-4.5-9.9c-0.4-1-0.9-1.9-1.5-3q-0.1-0.2-0.1-0.3l-2.5 5.4c-3.5 7.9-7 15.5-10.5 23.2q-0.6 1.3-1.2 2.5l-0.3 0.6c-0.6 1.2-1.5 1.9-2.5 1.9q-0.5 0-0.9-0.2-1-0.4-1.3-1.1c-0.2-0.8 0.2-1.5 0.5-2q0.1-0.2 0.2-0.4c4.8-10.5 10-21.8 15.3-33.4l0.1-0.2c0.5-1 1.1-2.5 3-2.5 2.1-0.1 2.8 1.5 3.3 2.6q0.1 0.2 0.2 0.3 2.6 5.7 5.2 11.4c3.1 6.7 6.3 13.7 9.5 20.6 0 0.2 0.2 0.5 0.3 0.7zm156.1 0.3c0.4 0.7 0.9 1.6 0.6 2.5q-0.3 0.7-1.2 1.2-0.6 0.2-1.1 0.2c-1.6 0-2.2-1.5-2.7-2.6l-0.1-0.1c-3.5-7.9-7.4-16.4-12.1-26.7-0.5-1.1-1-2.1-1.6-3.4q-0.2-0.4-0.4-0.8l-2.6 5.6c-3.6 8-7.1 15.6-10.5 23.1q-0.3 0.6-0.5 1.1c-0.3 0.7-0.6 1.4-1 2.1-0.5 1-1.4 1.6-2.3 1.6q-0.3 0-0.7-0.1-1-0.3-1.3-1.1c-0.4-0.8 0-1.7 0.3-2.3l0.1-0.2c0.5-1.2 1.1-2.4 1.6-3.6q0.6-1.1 1.1-2.2 2-4.5 4.1-9c2.7-5.9 5.5-12.1 8.3-18.1q0.1-0.3 0.2-0.5c0.5-1 1.1-2.6 3.2-2.6 2.1 0 2.8 1.6 3.2 2.6q0.1 0.2 0.2 0.4c5.7 12.3 10.5 22.6 14.9 32.5q0.1 0.2 0.3 0.4zm120.6-35.2c0.3 0.3 0.6 0.8 0.5 1.7 0 1.7-1.6 1.8-2.2 1.8q-0.2 0-0.4 0c-0.1 0-0.4 0.1-1.4 0.1-0.4 0-0.9 0-1.3-0.1q-0.3 0-0.5 0-1.6 0-2.8 0-0.9 0-1.7 0c-1.1 0-2.3 0-2.7 0.3-0.2 0.1-0.3 0.6-0.3 1.5 0 1.7 0 4.2-0.1 7.9q0 3.5 0 7 0 3.9 0 7.9 0 3.8 0 7.5 0 0.2 0 0.5c0.1 0.7 0.1 1.6-0.5 2.2q-0.7 0.7-1.9 0.7-1.1 0-1.7-0.6c-0.6-0.7-0.6-1.6-0.5-2.4q0-0.2 0-0.4c0-5.6 0-11.3 0-16.8 0-4 0.1-8.1 0.1-12.1 0-1.2 0-2.6-0.4-2.9-0.3-0.3-1.4-0.3-3-0.3q-1.2 0-2.4 0-1.2 0-2.4 0.1-1.2 0-2.2-0.1-0.2 0-0.6 0-0.3 0.1-0.7 0.1c-0.2 0-1 0-1.5-0.6q-0.6-0.5-0.6-1.6c0-1 0.5-2.2 3.1-2.2q12.9 0 25.9 0 1.4 0 2.2 0.8zm-242.1 36.9c0 2.3-1.5 2.3-3 2.3q-3.9 0-7.7 0-2.4 0-4.7 0c-3 0-5.3 0-7.5 0h-0.1q-1.7 0-2.5-0.9c-0.8-0.8-0.9-2.1-0.9-3.2 0-3.8 0-7.7 0-11.5q0-2.2 0-4.4v-4.1c0-3.9 0-7.9 0-11.9q0-0.2 0-0.4c0-0.9 0-2 0.7-2.8q0.6-0.6 1.7-0.6h0.1q1.1 0 1.7 0.7c0.6 0.7 0.5 1.7 0.4 2.5q0 0.4 0 0.7c0 5.8 0 11.6 0 17.3 0 3.4 0 7.1 0 10.6 0 1.4 0 2.9 0.3 3.2 0.2 0.3 1.4 0.3 2.7 0.3h0.4q2.7 0 5.2 0 2.5 0 4.8 0c1.9 0 3.5 0 5 0q0.2 0 0.5 0 0.3 0 0.5 0c0.6 0 2.4 0 2.4 2.2zm-83-35.5c0 1.9-1.5 3.4-3.4 3.4-1.1 0-2.1-0.5-2.8-1.3h-14.6c-0.5 0-0.8-0.4-0.8-0.8v-2.7c0-0.4 0.3-0.7 0.8-0.7h14.6c0.7-0.8 1.7-1.4 2.8-1.4 1.9 0 3.4 1.6 3.4 3.5zm-0.4 17.5c0 1.9-1.5 3.5-3.4 3.5-1.2 0-2.2-0.6-2.8-1.4h-23.7v-0.7-3.4l0.7-0.1h23c0.6-0.8 1.6-1.3 2.8-1.3 1.9 0 3.4 1.5 3.4 3.4zm-0.2 18c0 1.9-1.6 3.5-3.5 3.5-1.1 0-2.1-0.6-2.7-1.4h-31.8v-0.7-3.4h0.7 31.1c0.6-0.9 1.6-1.4 2.7-1.4 1.9 0 3.5 1.5 3.5 3.4zm129.9 1.2z"/><path class="a" d="m292.4 26.6h4.5v3h-4.5z"/><path class="a" d="m292.4 32.5h4.5v3h-4.5z"/><path class="a" d="m292.4 14.8h4.5v3h-4.5z"/><path class="a" d="m292.4 20.7h4.5v3h-4.5z"/><path class="a" d="m322.1 14.8h4.4v3h-4.4z"/><path class="a" d="m322.1 26.6h4.4v3h-4.4z"/><path class="a" d="m322.1 8.9h4.4v3h-4.4z"/><path class="a" d="m322.1 20.7h4.4v3h-4.4z"/><circle class="a" cx="306.6" cy="11.3" r="2.2"/><path class="a" d="m292.4 8.9h4.5v3h-4.5z"/><path class="a" d="m322.1 32.5h4.4v3h-4.4z"/><path fill-rule="evenodd" class="a" d="m320.6 3v38.3h-22.3v-38.3zm-3.7 3.8h-14.7v30.8h14.7z"/></g></svg>